<svg xmlns="http://www.w3.org/2000/svg" viewBox="0 0 512 512">
  <rect width="512" height="512" rx="104" fill="#d86732"/>
  <circle cx="256" cy="256" r="198" fill="#6f2945"/>
  <circle cx="256" cy="256" r="171" fill="#f2bb39" stroke="#172e2a" stroke-width="13"/>
  <path d="M256 80c22 24 39 27 64 5-1 32 13 48 44 54-28 18-34 38-19 67-33-6-51 5-59 37-25-22-45-22-70 0-8-32-26-43-59-37 15-29 9-49-19-67 31-6 45-22 44-54 25 22 42 19 64-5Z" fill="#d86732" opacity=".95"/>
  <path d="M168 405V250c0-72 39-116 88-116s88 44 88 116v155Z" fill="#fff5d8" stroke="#172e2a" stroke-width="15"/>
  <path d="M197 405V262c0-48 24-78 59-78s59 30 59 78v143Z" fill="#1c5e55"/>
  <path d="M146 405h220M126 438h260" fill="none" stroke="#172e2a" stroke-width="18" stroke-linecap="round"/>
  <circle cx="256" cy="274" r="31" fill="#f2bb39" stroke="#172e2a" stroke-width="10"/>
  <path d="M256 243v62M225 274h62" stroke="#172e2a" stroke-width="10"/>
  <path d="M97 377c29-18 48-18 76 0M339 377c28-18 47-18 76 0" fill="none" stroke="#fff5d8" stroke-width="10" stroke-linecap="round"/>
</svg>
